<?xml version="1.0" encoding="utf-8"?>
<!-- Generator: Adobe Illustrator 19.0.0, SVG Export Plug-In . SVG Version: 6.00 Build 0)  -->
<svg version="1.1" id="OBJECTS" xmlns="http://www.w3.org/2000/svg" xmlns:xlink="http://www.w3.org/1999/xlink" x="0px" y="0px"
	 viewBox="0 0 2715.3 377.7" style="enable-background:new 0 0 2715.3 377.7;" xml:space="preserve">
<style type="text/css">
	.st0{display:none;}
	.st1{display:inline;}
	.st2{font-family:'Brown-Bold';}
	.st3{font-size:153.9063px;}
	.st4{fill:#FFFFFF;}
</style>
<g class="st0">
	<g class="st1">
		<g>
			<polygon points="2434.8,-209.6 2456.7,-209.6 2456.7,-195.8 2434.8,-192.4 			"/>
			<polygon points="2474.1,-186.5 2474.1,-171.3 2471.6,-172.7 2463,-177.3 2463,-177.3 2460.8,-178.4 2434.8,-192.4 2456.7,-195.8 
				2463,-192.5 2471.6,-187.8 			"/>
			<rect x="2490.6" y="-213.4" width="22.9" height="21.1"/>
			<polygon points="2513.5,-192.4 2485.8,-177.6 2481.8,-175.4 2477.2,-172.9 2474.1,-171.3 2471.6,-172.7 2463,-177.3 
				2460.8,-178.4 2463,-179.7 2471.6,-184.9 2474.1,-186.5 2477.2,-188.3 2485.8,-193.6 2490.6,-196.4 2490.6,-196.4 			"/>
			<polygon points="2513.2,-252 2491.2,-252 2491.2,-265.7 2513.2,-269.2 			"/>
			<polygon points="2513.2,-269.2 2491.2,-265.7 2485.8,-268.6 2477.2,-273.2 2473.8,-275.1 2473.8,-275.1 2473.8,-290.3 
				2477.2,-288.4 2481.2,-286.3 2485.8,-283.8 2487.1,-283.1 			"/>
			<rect x="2434.4" y="-269.2" width="22.9" height="21.1"/>
			<polygon points="2487.1,-283.1 2485.8,-282.3 2477.2,-277.1 2473.8,-275.1 2473.8,-275.1 2471.6,-273.7 2463,-268.5 
				2457.4,-265.1 2457.3,-265.1 2434.4,-269.2 2463,-284.4 2466.1,-286.1 2471.6,-289.1 2473.8,-290.3 2477.2,-288.4 2480.1,-286.9 
				2485.8,-283.8 2485.8,-283.8 			"/>
			<polygon points="2457.3,-253 2463,-249.1 2463,-228 2434.4,-248.1 2434.4,-269.2 			"/>
			<polygon points="2471.6,-243 2477.2,-239 2477.2,-217.9 2471.6,-221.9 			"/>
			<polygon points="2513.5,-213.4 2513.5,-192.4 2490.6,-208.5 2485.8,-211.9 2485.8,-232.9 			"/>
			<polygon points="2485.8,-268.6 2485.8,-193.6 2477.2,-188.3 2477.2,-273.2 			"/>
			<polygon points="2485.8,-331 2485.8,-283.8 2477.2,-288.4 2477.2,-331 			"/>
			<polygon points="2463,-331 2471.6,-331 2471.6,-289.1 2466.1,-286.1 2463,-284.4 			"/>
			<polygon points="2463,-177.3 2471.6,-172.7 2471.6,-132.4 2463,-132.4 			"/>
			<polygon points="2485.8,-177.6 2485.8,-132.4 2477.2,-132.4 2477.2,-172.9 2481.8,-175.4 			"/>
			<polygon points="2471.6,-273.7 2471.6,-187.8 2463,-192.5 2463,-268.5 			"/>
			<polygon points="2485.8,-268.6 2477.2,-261.5 2477.2,-273.2 			"/>
			<polygon points="2463,-268.5 2471.6,-262 2471.6,-273.7 			"/>
			<polygon points="2485.8,-193.6 2477.2,-200.7 2477.2,-188.3 			"/>
			<polygon points="2463,-192.5 2471.6,-200.2 2471.6,-187.8 			"/>
			<polygon points="2434.4,-269.2 2457.3,-257.7 2457.3,-253 			"/>
			<polygon points="2513.5,-192.3 2490.6,-203.8 2490.6,-208.5 			"/>
		</g>
		<g>
			<path d="M2532.2-314.1v164.7h-116.5v-164.7H2532.2 M2540.9-322.7H2407v182.1h133.9V-322.7L2540.9-322.7z"/>
		</g>
	</g>
	<g class="st1">
		<text transform="matrix(1 0 0 1 -1272.636 218.3742)" class="st2 st3">Stabilized Set Dollar</text>
		<g>
			<g>
				<g>
					<path d="M-1381.7,192c-1.8-0.2-3.7-0.6-5.4-1.1l-0.5-0.2v-50.3l0.2-0.2c0.6-0.8,1.4-1.5,2.3-2c1-0.6,2.1-1,3.4-1.3l1-0.3v55.6
						L-1381.7,192z"/>
					<path class="st4" d="M-1381.6,137.6v53.7c-1.8-0.2-3.5-0.5-5.2-1.1v-49.5c0.6-0.7,1.2-1.3,2.1-1.8
						C-1383.8,138.3-1382.8,137.9-1381.6,137.6 M-1380,135.5l-2,0.5c-1.3,0.3-2.5,0.8-3.6,1.4c-1,0.6-1.8,1.3-2.5,2.2l-0.3,0.4v0.5
						v49.5v1.1l1.1,0.4c1.8,0.6,3.7,1,5.6,1.2l1.7,0.2v-1.8v-53.7V135.5L-1380,135.5z"/>
				</g>
				<g>
					<path d="M-1376.8,136.1l0.8,0c1.8,0.1,3.6,0.4,5.4,1l0.6,0.2v50.3l-0.1,0.2c-0.4,0.6-0.9,1.1-1.5,1.6c-1.2,1.1-2.6,1.8-4.2,2.2
						l-1,0.3V136.1z"/>
					<path class="st4" d="M-1376,137c1.8,0.1,3.5,0.4,5.2,0.9v49.4c-0.4,0.5-0.8,1-1.3,1.5c-1.1,1-2.4,1.6-3.9,2V137 M-1377.6,135.3
						v1.7v53.9v2.1l2-0.5c1.7-0.5,3.2-1.3,4.5-2.4c0.6-0.6,1.2-1.1,1.6-1.8l0.3-0.4v-0.5v-49.4v-1.2l-1.1-0.4
						c-1.8-0.6-3.7-0.9-5.6-1L-1377.6,135.3L-1377.6,135.3z"/>
				</g>
			</g>
			<path d="M-1381.6,100.8v16.6c-1.8,0.2-3.5,0.4-5.2,0.8v-17.4H-1381.6z"/>
			<path d="M-1386.8,120.8c1.7-0.4,3.4-0.7,5.2-0.9v15.2c0,0,0,0,0,0c-1.6,0.4-3,0.9-4.3,1.7c-0.3,0.2-0.6,0.4-0.8,0.6V120.8z"/>
			<path d="M-1386.8,192.7c1.7,0.5,3.4,0.8,5.2,1v14.8c-1.8-0.1-3.5-0.3-5.2-0.6V192.7z"/>
			<path d="M-1386.8,210.3c1.7,0.3,3.5,0.5,5.2,0.5v16.5h-5.2V210.3z"/>
			<path d="M-1370.8,100.8v17.1c-1.7-0.3-3.4-0.4-5.2-0.5v-16.6H-1370.8z"/>
			<path d="M-1376,119.8c1.8,0.1,3.5,0.3,5.2,0.6v15c-1.7-0.5-3.4-0.8-5.2-0.8V119.8z"/>
			<path d="M-1376,193.3c2-0.4,3.7-1.3,5.2-2.5v16.5c-1.7,0.5-3.4,0.8-5.2,1V193.3z"/>
			<path d="M-1376,210.7c1.8-0.2,3.5-0.5,5.2-0.9v17.6h-5.2V210.7z"/>
			<g>
				<g>
					<path d="M-1350.4,182.6c0,3.9-0.8,7.4-2.4,10.5s-3.7,5.9-6.4,8.1c-2.7,2.3-5.8,4-9.3,5.3c-0.8,0.3-1.5,0.5-2.3,0.7
						c-1.7,0.5-3.4,0.8-5.2,1c-1.2,0.1-2.4,0.2-3.6,0.2c-0.7,0-1.3,0-2,0c-1.8-0.1-3.5-0.3-5.2-0.6c-3.2-0.5-6.4-1.5-9.4-2.8
						c-5.3-2.3-10.1-5.4-14.5-9.5l10.8-11.3c2.5,2.7,5.5,5,9.1,6.8c1.3,0.7,2.7,1.2,4.1,1.7c1.7,0.5,3.4,0.8,5.2,1
						c0.7,0.1,1.3,0.1,2,0.1c1.3,0,2.5-0.1,3.6-0.4c2-0.4,3.7-1.3,5.2-2.5c0.1-0.1,0.2-0.1,0.2-0.2c2.3-2.1,3.5-4.6,3.5-7.8
						c0-2.8-0.9-5-2.7-6.7c-0.3-0.3-0.7-0.6-1-0.9c-1.5-1.2-3.2-2.3-5.2-3.3c-0.2-0.1-0.4-0.2-0.5-0.3c-1.6-0.8-3.3-1.5-5.1-2.2
						c-1.2-0.5-2.5-1-3.9-1.5c-0.5-0.2-0.9-0.3-1.3-0.5c-2.8-1.1-5.4-2.3-7.8-3.8c-3.4-2-6.2-4.5-8.6-7.6c-2.4-3.1-3.6-7.1-3.6-12
						c0-3.9,0.8-7.3,2.5-10.3c1.6-3,3.8-5.5,6.4-7.6c2.6-2.1,5.7-3.7,9.1-4.8c0.7-0.2,1.4-0.4,2.1-0.6c1.7-0.4,3.4-0.7,5.2-0.9
						c1.1-0.1,2.1-0.2,3.2-0.2c0.8,0,1.6,0,2.4,0.1c1.8,0.1,3.5,0.3,5.2,0.6c1.8,0.3,3.5,0.7,5.2,1.2c4.1,1.2,8.2,3.3,12.3,6.3
						l-8.6,12.3c-1.7-1.6-3.9-3-6.6-4.1c-0.7-0.3-1.5-0.5-2.2-0.8c-1.7-0.5-3.4-0.8-5.2-0.8c-0.3,0-0.6,0-0.9,0
						c-1.5,0-3.1,0.2-4.7,0.5c0,0,0,0,0,0c-1.6,0.4-3,0.9-4.3,1.7c-0.3,0.2-0.6,0.4-0.8,0.6c-0.9,0.6-1.6,1.4-2.2,2.3
						c-0.8,1.2-1.2,2.6-1.2,4.3c0,2.3,1,4.2,3,5.7c0.1,0.1,0.3,0.2,0.4,0.3c1.5,1.1,3.2,2,5.2,3c0.6,0.3,1.1,0.5,1.7,0.8
						c1.2,0.5,2.5,1,3.9,1.6c1.7,0.7,3.4,1.4,5.2,2.1c0.2,0.1,0.3,0.1,0.5,0.2c3.4,1.4,6.6,3.1,9.5,5.2c3,2.1,5.4,4.7,7.4,7.9
						C-1351.4,173.8-1350.4,177.8-1350.4,182.6z"/>
				</g>
			</g>
		</g>
		<g>
			<path d="M-1333,84.8v158.6h-95.3V84.8H-1333 M-1324.3,76.1H-1437v176h112.7V76.1L-1324.3,76.1z"/>
		</g>
		<g>
			<text transform="matrix(1 0 0 1 -1272.636 -203.3961)" class="st2 st3">Stabilized Set Dollar</text>
			<g>
				<g>
					<g>
						<g>
							<path d="M-1382-222.8c-2.3-0.2-4.6-0.7-6.7-1.4l-0.7-0.2v-62.8l0.2-0.3c0.8-1,1.7-1.9,2.9-2.5c1.3-0.7,2.7-1.3,4.2-1.7
								l1.2-0.3v69.4L-1382-222.8z"/>
							<path class="st4" d="M-1381.9-290.8v67c-2.2-0.2-4.4-0.7-6.5-1.4V-287c0.7-0.9,1.5-1.7,2.6-2.3
								C-1384.6-289.9-1383.3-290.4-1381.9-290.8 M-1379.9-293.4l-2.5,0.6c-1.6,0.4-3.1,1-4.5,1.8c-1.3,0.7-2.3,1.6-3.1,2.8
								l-0.4,0.5v0.7v61.8v1.4l1.4,0.5c2.2,0.8,4.6,1.3,7,1.5l2.2,0.2v-2.2v-67V-293.4L-1379.9-293.4z"/>
						</g>
						<g>
							<path d="M-1375.9-292.6l1,0c2.3,0.1,4.5,0.5,6.8,1.2l0.7,0.2v62.8l-0.2,0.3c-0.5,0.7-1.1,1.4-1.8,2c-1.5,1.3-3.2,2.2-5.2,2.8
								l-1.3,0.3V-292.6z"/>
							<path class="st4" d="M-1374.9-291.6c2.2,0.1,4.4,0.5,6.5,1.2v61.7c-0.5,0.7-1,1.3-1.7,1.8c-1.4,1.2-3,2.1-4.8,2.6V-291.6
								 M-1376.9-293.6v2.1v67.3v2.6l2.5-0.7c2.1-0.6,4-1.6,5.6-3c0.8-0.7,1.5-1.4,2-2.2l0.4-0.5v-0.6v-61.7v-1.5l-1.4-0.4
								c-2.3-0.7-4.7-1.2-7-1.3L-1376.9-293.6L-1376.9-293.6z"/>
						</g>
					</g>
					<path d="M-1381.9-356.6v40.8c-2.2,0.2-4.4,0.5-6.5,1v-41.8H-1381.9z"/>
					<path d="M-1388.4-311.8c2.1-0.5,4.3-0.9,6.5-1.1v19c0,0,0,0-0.1,0c-2,0.5-3.8,1.2-5.4,2.1c-0.4,0.2-0.7,0.5-1.1,0.7V-311.8z"/>
					<path d="M-1388.4-222c2.1,0.7,4.3,1.1,6.5,1.2v18.5c-2.2-0.1-4.4-0.3-6.5-0.7V-222z"/>
					<path d="M-1388.4-200c2.1,0.3,4.3,0.6,6.5,0.7v40.7h-6.5V-200z"/>
					<path d="M-1368.4-356.6v41.3c-2.1-0.3-4.3-0.6-6.5-0.7v-40.7H-1368.4z"/>
					<path d="M-1374.9-313c2.2,0.1,4.4,0.3,6.5,0.7v18.8c-2.1-0.6-4.3-1-6.5-1V-313z"/>
					<path d="M-1374.9-221.2c2.5-0.5,4.7-1.6,6.5-3.1v20.6c-2.1,0.6-4.3,1-6.5,1.3V-221.2z"/>
					<path d="M-1374.9-199.5c2.2-0.2,4.4-0.6,6.5-1.2v42h-6.5V-199.5z"/>
					<g>
						<g>
							<path d="M-1342.9-234.6c0,4.8-1,9.2-3,13.2s-4.7,7.3-8,10.1c-3.3,2.8-7.2,5-11.6,6.6c-0.9,0.3-1.9,0.6-2.8,0.9
								c-2.1,0.6-4.3,1-6.5,1.3c-1.5,0.2-3,0.3-4.5,0.3c-0.8,0-1.7,0-2.5-0.1c-2.2-0.1-4.4-0.3-6.5-0.7c-4.1-0.7-8-1.8-11.8-3.5
								c-6.6-2.8-12.6-6.8-18.2-11.9l13.5-14.2c3.1,3.4,6.8,6.2,11.3,8.5c1.7,0.8,3.4,1.5,5.1,2.1c2.1,0.7,4.3,1.1,6.5,1.2
								c0.8,0.1,1.7,0.1,2.5,0.1c1.6,0,3.1-0.2,4.5-0.5c2.5-0.5,4.7-1.6,6.5-3.1c0.1-0.1,0.2-0.2,0.3-0.3c2.9-2.6,4.4-5.8,4.4-9.7
								c0-3.5-1.1-6.3-3.4-8.4c-0.4-0.4-0.8-0.8-1.3-1.1c-1.8-1.5-4-2.9-6.5-4.2c-0.2-0.1-0.4-0.2-0.7-0.3c-2-1-4.1-1.9-6.3-2.8
								c-1.6-0.6-3.2-1.2-4.8-1.8c-0.6-0.2-1.1-0.4-1.7-0.6c-3.4-1.3-6.7-2.9-9.8-4.8c-4.2-2.5-7.8-5.6-10.8-9.5
								c-3-3.9-4.5-8.9-4.5-14.9c0-4.8,1-9.1,3.1-12.8c2.1-3.7,4.7-6.9,8-9.5c3.3-2.6,7.1-4.6,11.3-5.9c0.9-0.3,1.8-0.5,2.6-0.7
								c2.1-0.5,4.3-0.9,6.5-1.1c1.3-0.1,2.7-0.2,4-0.2c1,0,2,0,3,0.1c2.2,0.1,4.4,0.3,6.5,0.7c2.2,0.4,4.3,0.8,6.4,1.5
								c5.1,1.5,10.2,4.1,15.3,7.9l-10.8,15.4c-2.2-2.1-4.9-3.7-8.2-5.1c-0.9-0.4-1.8-0.7-2.8-0.9c-2.1-0.6-4.3-1-6.5-1
								c-0.4,0-0.8,0-1.1,0c-1.9,0-3.9,0.2-5.9,0.7c0,0,0,0-0.1,0c-2,0.5-3.8,1.2-5.4,2.1c-0.4,0.2-0.7,0.5-1.1,0.7
								c-1.1,0.8-2,1.8-2.8,2.9c-1,1.5-1.5,3.3-1.5,5.3c0,2.9,1.2,5.2,3.7,7.1c0.2,0.1,0.4,0.3,0.6,0.4c1.8,1.3,4,2.5,6.5,3.7
								c0.7,0.3,1.4,0.7,2.2,1c1.6,0.7,3.2,1.3,4.8,2c2.1,0.9,4.3,1.7,6.5,2.6c0.2,0.1,0.4,0.2,0.6,0.2c4.3,1.7,8.2,3.8,11.9,6.5
								c3.7,2.6,6.8,5.9,9.2,9.8C-1344.1-245.6-1342.9-240.6-1342.9-234.6z"/>
						</g>
					</g>
				</g>
				<g>
					<path d="M-1333-337v158.6h-95.3V-337H-1333 M-1324.3-345.6H-1437v176h112.7V-345.6L-1324.3-345.6z"/>
				</g>
			</g>
		</g>
	</g>
</g>
<g>
	<g>
		<path d="M309.8,226c5,5.4,11,10,18.2,13.6c7.2,3.6,14.7,5.4,22.7,5.4c7.4,0,13.5-2.1,18.2-6.2c4.7-4.1,7.1-9.3,7.1-15.6
			c0-5.6-1.8-10.1-5.4-13.5c-3.6-3.4-8.2-6.4-13.6-9c-5.4-2.6-11.4-5.1-18-7.4c-6.5-2.3-12.7-5.2-18.4-8.7
			c-6.8-4-12.5-9.1-17.3-15.4c-4.8-6.3-7.2-14.3-7.2-24c0-7.8,1.6-14.6,5-20.7c3.3-6,7.6-11.1,12.9-15.4c5.3-4.2,11.3-7.4,18.2-9.5
			c6.8-2.1,13.9-3.2,21.2-3.2c8.9,0,17.5,1.2,25.6,3.6c8.2,2.4,16.4,6.6,24.6,12.8l-17.3,24.8c-3.5-3.3-7.9-6-13.2-8.2
			c-5.4-2.1-10.9-3.2-16.7-3.2c-3.1,0-6.3,0.4-9.5,1.1c-3.2,0.7-6.1,1.9-8.7,3.3c-2.6,1.5-4.6,3.4-6.2,5.8c-1.6,2.4-2.4,5.2-2.4,8.5
			c0,4.6,2,8.4,5.9,11.4s8.9,5.7,14.9,8.2c5.9,2.5,12.3,5.1,19.2,7.8c6.8,2.7,13.2,6.2,19.2,10.4c5.9,4.2,10.9,9.5,14.9,15.9
			c4,6.4,5.9,14.4,5.9,24.1c0,7.8-1.6,14.8-4.8,21.2c-3.2,6.4-7.5,11.8-12.9,16.3c-5.4,4.5-11.6,8.1-18.7,10.6
			c-7.1,2.6-14.5,3.8-22.3,3.8c-11.7,0-22.9-2.3-33.4-6.8c-10.6-4.5-20.3-10.9-29.2-19.2L309.8,226z"/>
		<path d="M522.1,272.3c-2.1,0.8-5.2,1.4-9.3,1.9c-4,0.4-7.6,0.6-10.8,0.6c-9.7,0-18.1-1.5-25-4.6c-6.9-3.1-12.5-7.3-16.6-12.8
			c-3.1-4.1-5.4-9-6.8-14.6c-1.4-5.6-2.1-12.7-2.1-21.3v-42.1H418v-27.2h33.4v-33.4h32.2v33.4h39.6v27.2h-39.6v45.8
			c0,3.8,0.3,6.9,1,9.2c0.7,2.3,1.6,4.3,3,5.9c1.6,1.8,3.8,3.3,6.4,4.3c2.6,1.1,5.9,1.6,9.9,1.6c2.3,0,4.8-0.1,7.4-0.4
			c2.6-0.2,4.5-0.5,5.7-0.9L522.1,272.3z"/>
		<path d="M665.7,272.3h-31v-9.7c-5,4.3-10.2,7.4-15.8,9.3c-5.6,1.9-11.5,2.8-17.6,2.8c-8.9,0-17.4-1.8-25.4-5.4
			c-8-3.6-14.7-8.6-19.9-14.9c-4.8-5.4-8.5-11.8-11.3-18.9c-2.7-7.2-4.1-14.9-4.1-23.2c0-8.9,1.5-17.2,4.6-24.8
			c3.1-7.6,7.3-14.2,12.6-19.8c5.4-5.6,11.6-10,18.7-13.2c7.1-3.2,14.8-4.8,23-4.8c6.9,0,13.3,1.1,19.2,3.2c5.9,2.1,11.2,5.1,16,8.9
			v-9.7h31V272.3z M633.5,194.3c-3.3-4.5-7.5-8-12.6-10.8c-5.1-2.7-10.8-4.1-17.1-4.1c-4.8,0-9.1,0.9-12.9,2.7
			c-3.8,1.8-7,4.3-9.7,7.3c-2.6,3.1-4.7,6.6-6.2,10.5c-1.5,4-2.2,8.1-2.2,12.4c0,4.8,0.8,9.2,2.4,13.1c1.6,4,3.8,7.4,6.7,10.3
			c2.9,2.9,6.3,5.2,10.2,6.8c3.9,1.7,8,2.5,12.5,2.5c6.1,0,11.7-1.4,16.7-4.1c5-2.7,9.1-6.3,12.3-10.8V194.3z"/>
		<path d="M702.8,272.3V96.5H735v64.4c9.4-7.4,20.7-11.1,33.9-11.1c8.1,0,15.7,1.6,22.9,4.8c7.2,3.2,13.5,7.6,18.8,13.2
			c5.4,5.6,9.6,12.2,12.6,19.8c3.1,7.6,4.6,15.8,4.6,24.8c0,8.3-1.4,16-4.1,23.2c-2.7,7.2-6.5,13.5-11.3,18.9
			c-5.3,6.3-11.9,11.2-19.9,14.9c-8,3.6-16.5,5.4-25.4,5.4c-6.1,0-12-1-17.6-2.8c-5.6-1.9-10.9-5-15.8-9.3v9.7H702.8z M735,230.2
			c3.1,4.5,7.2,8,12.3,10.8c5,2.7,10.6,4.1,16.7,4.1c4.5,0,8.6-0.8,12.5-2.5c3.9-1.6,7.3-3.9,10.2-6.8c2.9-2.9,5.1-6.3,6.7-10.3
			c1.6-4,2.4-8.3,2.4-13.1c0-4.3-0.7-8.4-2.2-12.4c-1.5-4-3.6-7.5-6.2-10.5c-2.6-3.1-5.9-5.5-9.8-7.3c-3.9-1.8-8.1-2.7-12.8-2.7
			c-6.3,0-12,1.4-17.1,4.1c-5.1,2.7-9.3,6.3-12.6,10.8V230.2z"/>
		<path d="M850.2,109.6c0-5.8,2.1-10.6,6.2-14.6c4.1-4,9.1-5.9,14.9-5.9c5.8,0,10.7,2,14.9,5.9c4.1,4,6.2,8.8,6.2,14.6
			c0,5.8-2.1,10.6-6.2,14.6c-4.1,4-9.1,5.9-14.9,5.9c-5.8,0-10.7-2-14.9-5.9C852.2,120.3,850.2,115.4,850.2,109.6z M887.3,272.3
			h-32.2V152.2h32.2V272.3z"/>
		<path d="M956.7,272.3h-32.2V96.5h32.2V272.3z"/>
		<path d="M988.9,109.6c0-5.8,2.1-10.6,6.2-14.6c4.1-4,9.1-5.9,14.9-5.9c5.8,0,10.7,2,14.9,5.9c4.1,4,6.2,8.8,6.2,14.6
			c0,5.8-2.1,10.6-6.2,14.6c-4.1,4-9.1,5.9-14.9,5.9c-5.8,0-10.7-2-14.9-5.9C990.9,120.3,988.9,115.4,988.9,109.6z M1026,272.3
			h-32.2V152.2h32.2V272.3z"/>
		<path d="M1158.5,172l-58.2,73.1h63.2v27.2H1057v-19.8l57.5-73.1h-52.5v-27.2h96.6V172z"/>
		<path d="M1293,253.3c-5.8,6.9-13.1,12.3-21.9,16c-8.8,3.7-18,5.6-27.4,5.6c-8.9,0-17.2-1.5-24.9-4.5c-7.7-3-14.3-7.2-19.9-12.6
			c-5.6-5.4-10-12-13.2-19.7c-3.2-7.7-4.8-16.2-4.8-25.6c0-8.4,1.4-16.4,4.1-23.9c2.7-7.5,6.6-14.2,11.8-19.9
			c5.1-5.8,11.3-10.4,18.4-13.7c7.2-3.4,15.2-5.1,24.1-5.1c8.3,0,15.8,1.7,22.8,5c6.9,3.3,12.9,7.7,18,13.2c5,5.5,9,12,11.8,19.4
			c2.8,7.4,4.2,15.4,4.2,23.8c0,3.5-0.2,6.5-0.7,9.2H1212c0.5,4.3,1.6,8.2,3.5,11.6c1.8,3.5,4.2,6.4,7.1,8.9
			c2.9,2.5,6.2,4.4,9.9,5.8c3.7,1.4,7.7,2.1,12,2.1c6.9,0,13-1.5,18.2-4.6c5.2-3.1,9.2-6.1,12-9.3L1293,253.3z M1263,196.8
			c-0.3-2.6-1.1-5.2-2.4-7.8c-1.2-2.6-2.9-4.8-5-6.8c-2.1-2-4.5-3.5-7.3-4.7c-2.8-1.2-5.9-1.7-9.2-1.7c-6.8,0-12.5,2.1-17.3,6.4
			c-4.8,4.3-7.6,9.2-8.4,14.6H1263z"/>
		<path d="M1409.9,272.3v-9.7c-5,4.3-10.2,7.4-15.8,9.3c-5.6,1.9-11.5,2.8-17.6,2.8c-8.9,0-17.4-1.8-25.4-5.4
			c-8-3.6-14.7-8.6-19.9-14.9c-4.8-5.4-8.5-11.8-11.3-18.9c-2.7-7.2-4.1-14.9-4.1-23.2c0-8.9,1.5-17.2,4.6-24.8
			c3.1-7.6,7.3-14.2,12.6-19.8c5.4-5.6,11.6-10,18.7-13.2c7.1-3.2,14.8-4.8,23-4.8c13.2,0,24.5,3.7,33.9,11.1V96.5h32.2v175.8
			H1409.9z M1408.6,194.3c-3.3-4.5-7.5-8-12.6-10.8c-5.1-2.7-10.8-4.1-17.1-4.1c-4.8,0-9.1,0.9-12.9,2.7c-3.8,1.8-7,4.3-9.7,7.3
			c-2.6,3.1-4.7,6.6-6.2,10.5c-1.5,4-2.2,8.1-2.2,12.4c0,4.8,0.8,9.2,2.4,13.1c1.6,4,3.8,7.4,6.7,10.3c2.9,2.9,6.3,5.2,10.2,6.8
			c3.9,1.7,8,2.5,12.5,2.5c6.1,0,11.7-1.4,16.7-4.1c5-2.7,9.1-6.3,12.3-10.8V194.3z"/>
		<path d="M1545.6,226c5,5.4,11,10,18.2,13.6c7.2,3.6,14.7,5.4,22.7,5.4c7.4,0,13.5-2.1,18.2-6.2c4.7-4.1,7.1-9.3,7.1-15.6
			c0-5.6-1.8-10.1-5.4-13.5c-3.6-3.4-8.2-6.4-13.6-9c-5.4-2.6-11.4-5.1-18-7.4c-6.5-2.3-12.7-5.2-18.4-8.7
			c-6.8-4-12.5-9.1-17.3-15.4c-4.8-6.3-7.2-14.3-7.2-24c0-7.8,1.6-14.6,5-20.7c3.3-6,7.6-11.1,12.9-15.4c5.3-4.2,11.3-7.4,18.2-9.5
			c6.8-2.1,13.9-3.2,21.2-3.2c8.9,0,17.5,1.2,25.6,3.6c8.2,2.4,16.4,6.6,24.6,12.8l-17.3,24.8c-3.5-3.3-7.9-6-13.3-8.2
			c-5.4-2.1-10.9-3.2-16.7-3.2c-3.1,0-6.3,0.4-9.5,1.1c-3.2,0.7-6.1,1.9-8.7,3.3c-2.6,1.5-4.6,3.4-6.2,5.8c-1.6,2.4-2.4,5.2-2.4,8.5
			c0,4.6,2,8.4,5.9,11.4c4,3,8.9,5.7,14.9,8.2c5.9,2.5,12.3,5.1,19.2,7.8c6.8,2.7,13.2,6.2,19.2,10.4c5.9,4.2,10.9,9.5,14.9,15.9
			c4,6.4,5.9,14.4,5.9,24.1c0,7.8-1.6,14.8-4.8,21.2c-3.2,6.4-7.5,11.8-12.9,16.3c-5.4,4.5-11.6,8.1-18.7,10.6
			c-7.1,2.6-14.5,3.8-22.3,3.8c-11.7,0-22.9-2.3-33.4-6.8c-10.6-4.5-20.3-10.9-29.2-19.2L1545.6,226z"/>
		<path d="M1777.1,253.3c-5.8,6.9-13.1,12.3-21.9,16c-8.8,3.7-18,5.6-27.4,5.6c-8.9,0-17.2-1.5-24.9-4.5c-7.7-3-14.3-7.2-19.9-12.6
			c-5.6-5.4-10-12-13.2-19.7c-3.2-7.7-4.8-16.2-4.8-25.6c0-8.4,1.4-16.4,4.1-23.9c2.7-7.5,6.6-14.2,11.8-19.9
			c5.1-5.8,11.3-10.4,18.4-13.7c7.2-3.4,15.2-5.1,24.1-5.1c8.3,0,15.8,1.7,22.8,5c6.9,3.3,12.9,7.7,18,13.2c5,5.5,9,12,11.8,19.4
			c2.8,7.4,4.2,15.4,4.2,23.8c0,3.5-0.2,6.5-0.7,9.2h-83.2c0.5,4.3,1.6,8.2,3.5,11.6c1.8,3.5,4.2,6.4,7.1,8.9
			c2.9,2.5,6.2,4.4,9.9,5.8c3.7,1.4,7.7,2.1,12,2.1c6.9,0,13-1.5,18.2-4.6c5.2-3.1,9.2-6.1,12-9.3L1777.1,253.3z M1747.2,196.8
			c-0.3-2.6-1.1-5.2-2.4-7.8c-1.2-2.6-2.9-4.8-5-6.8c-2.1-2-4.5-3.5-7.3-4.7c-2.8-1.2-5.9-1.7-9.2-1.7c-6.8,0-12.5,2.1-17.3,6.4
			c-4.8,4.3-7.6,9.2-8.4,14.6H1747.2z"/>
		<path d="M1895.2,272.3c-2.1,0.8-5.2,1.4-9.3,1.9c-4,0.4-7.6,0.6-10.8,0.6c-9.7,0-18.1-1.5-25-4.6c-6.9-3.1-12.5-7.3-16.6-12.8
			c-3.1-4.1-5.4-9-6.8-14.6c-1.4-5.6-2.1-12.7-2.1-21.3v-42.1h-33.4v-27.2h33.4v-33.4h32.2v33.4h39.6v27.2h-39.6v45.8
			c0,3.8,0.3,6.9,1,9.2c0.7,2.3,1.6,4.3,3,5.9c1.6,1.8,3.8,3.3,6.4,4.3c2.6,1.1,5.9,1.6,9.9,1.6c2.3,0,4.8-0.1,7.4-0.4
			c2.6-0.2,4.5-0.5,5.7-0.9L1895.2,272.3z"/>
		<path d="M2050,99c13.9,0,25.5,1.4,34.9,4.2c9.4,2.8,17.7,6.9,24.8,12.1c10.7,7.9,19.2,18,25.3,30.2c6.1,12.2,9.2,25.6,9.2,40.1
			c0,14.5-3.1,27.9-9.2,40.1c-6.1,12.2-14.5,22.3-25.3,30.2c-7.1,5.3-15.4,9.3-24.8,12.1c-9.4,2.8-21,4.2-34.9,4.2h-54.5V99H2050z
			 M2110.7,185.7c0-7.3-1.1-14.1-3.3-20.6c-2.2-6.4-5.3-12.1-9.3-17.1c-4.8-6.1-10.8-10.9-18-14.2c-7.2-3.4-16-5.1-26.4-5.1H2029
			v113.9h24.8c10.4,0,19.2-1.7,26.4-5.1c7.2-3.4,13.2-8.1,18-14.2c4-5,7.1-10.6,9.3-17.1C2109.6,199.8,2110.7,192.9,2110.7,185.7z"
			/>
		<path d="M2165.2,212.4c0-8.6,1.6-16.7,4.8-24.4c3.2-7.7,7.7-14.3,13.4-19.9c5.7-5.6,12.5-10.1,20.3-13.4c7.8-3.3,16.3-5,25.4-5
			c9.1,0,17.5,1.7,25.4,5c7.8,3.3,14.6,7.8,20.3,13.4c5.7,5.6,10.2,12.3,13.4,19.9c3.2,7.7,4.8,15.8,4.8,24.4
			c0,8.8-1.6,16.9-4.8,24.4c-3.2,7.5-7.7,14.1-13.4,19.8c-5.7,5.7-12.5,10.2-20.3,13.4c-7.8,3.2-16.3,4.8-25.4,4.8
			c-9.1,0-17.5-1.6-25.4-4.8c-7.8-3.2-14.6-7.7-20.3-13.4c-5.7-5.7-10.2-12.3-13.4-19.8C2166.8,229.3,2165.2,221.2,2165.2,212.4z
			 M2197.4,212.4c0,4.5,0.8,8.7,2.4,12.6c1.6,4,3.7,7.4,6.4,10.4c2.7,3,6,5.3,9.9,7.1c3.9,1.7,8.2,2.6,13,2.6
			c4.6,0,8.9-0.9,12.9-2.6c4-1.7,7.3-4.1,10-7.1s4.9-6.4,6.4-10.4c1.6-4,2.4-8.2,2.4-12.6c0-4.5-0.8-8.7-2.4-12.8
			c-1.6-4-3.7-7.6-6.4-10.5s-6.1-5.3-10-7.1c-4-1.7-8.3-2.6-12.9-2.6c-4.8,0-9.1,0.9-13,2.6c-3.9,1.7-7.2,4.1-9.9,7.1
			c-2.7,3-4.9,6.5-6.4,10.5C2198.2,203.7,2197.4,207.9,2197.4,212.4z"/>
		<path d="M2352.4,272.3h-32.2V96.5h32.2V272.3z"/>
		<path d="M2421.7,272.3h-32.2V96.5h32.2V272.3z"/>
		<path d="M2574,272.3h-31v-9.7c-5,4.3-10.2,7.4-15.8,9.3c-5.6,1.9-11.5,2.8-17.6,2.8c-8.9,0-17.4-1.8-25.4-5.4
			c-8-3.6-14.7-8.6-19.9-14.9c-4.8-5.4-8.5-11.8-11.3-18.9c-2.7-7.2-4.1-14.9-4.1-23.2c0-8.9,1.5-17.2,4.6-24.8
			c3.1-7.6,7.3-14.2,12.6-19.8c5.4-5.6,11.6-10,18.7-13.2c7.1-3.2,14.8-4.8,23-4.8c6.9,0,13.3,1.1,19.2,3.2c5.9,2.1,11.2,5.1,16,8.9
			v-9.7h31V272.3z M2541.8,194.3c-3.3-4.5-7.5-8-12.6-10.8c-5.1-2.7-10.8-4.1-17.1-4.1c-4.8,0-9.1,0.9-12.9,2.7
			c-3.8,1.8-7,4.3-9.7,7.3c-2.6,3.1-4.7,6.6-6.2,10.5c-1.5,4-2.2,8.1-2.2,12.4c0,4.8,0.8,9.2,2.4,13.1c1.6,4,3.8,7.4,6.7,10.3
			c2.9,2.9,6.3,5.2,10.2,6.8c3.9,1.7,8,2.5,12.5,2.5c6.1,0,11.7-1.4,16.7-4.1c5-2.7,9.1-6.3,12.3-10.8V194.3z"/>
		<path d="M2684.2,180.7c-1.2-0.3-2.8-0.6-5-0.9c-2.1-0.2-4.4-0.4-6.7-0.4c-3.5,0-6.8,0.6-9.9,1.7c-3.1,1.2-6,2.6-8.5,4.3
			c-2.6,1.7-4.7,3.6-6.6,5.6c-1.8,2-3.2,3.9-4.2,5.7v75.5h-32.2V152.2h31v12.1c3.6-4.5,8.5-8,14.6-10.6c6.1-2.6,12.9-4,20.3-4
			c2.3,0,4.2,0.1,5.8,0.2c1.6,0.2,3.3,0.4,5.1,0.7L2684.2,180.7z"/>
	</g>
	<g>
		<g>
			<g>
				<path d="M105.6,136.7c1.4-0.8,3-1.4,4.7-1.9v79.6c-2.6-0.2-5.2-0.8-7.7-1.6v-73.4C103.4,138.3,104.4,137.4,105.6,136.7z"/>
			</g>
			<g>
				<path d="M118.6,133.9c2.6,0.1,5.2,0.6,7.7,1.4v73.3c-0.5,0.8-1.2,1.5-2,2.2c-1.6,1.4-3.5,2.4-5.7,3V133.9z"/>
			</g>
		</g>
		<path d="M110.3,80.4V105c-2.6,0.2-5.2,0.6-7.7,1.2V80.4H110.3z"/>
		<path d="M102.6,109.9c2.5-0.6,5.1-1.1,7.7-1.3v22.5c0,0,0,0-0.1,0c-2.4,0.6-4.5,1.4-6.4,2.5c-0.4,0.3-0.9,0.5-1.3,0.8V109.9z"/>
		<path d="M102.6,216.5c2.5,0.8,5.1,1.3,7.7,1.5v22c-2.6-0.1-5.2-0.4-7.7-0.8V216.5z"/>
		<path d="M102.6,242.8c2.5,0.4,5.1,0.7,7.7,0.8v24.5h-7.7V242.8z"/>
		<path d="M126.3,80.4v25.3c-2.5-0.4-5.1-0.7-7.7-0.8V80.4H126.3z"/>
		<path d="M118.6,108.5c2.6,0.1,5.2,0.4,7.7,0.8v22.3c-2.5-0.7-5.1-1.1-7.7-1.2V108.5z"/>
		<path d="M118.6,217.6c3-0.7,5.5-1.9,7.7-3.7v24.4c-2.5,0.7-5.1,1.2-7.7,1.5V217.6z"/>
		<path d="M118.6,243.4c2.6-0.3,5.2-0.7,7.7-1.4v26.1h-7.7V243.4z"/>
		<g>
			<g>
				<path d="M156.6,201.7c0,5.7-1.2,10.9-3.6,15.6c-2.4,4.7-5.5,8.7-9.5,12.1c-4,3.4-8.6,6-13.8,7.9c-1.1,0.4-2.2,0.8-3.4,1.1
					c-2.5,0.7-5.1,1.2-7.7,1.5c-1.8,0.2-3.5,0.3-5.4,0.3c-1,0-2,0-3-0.1c-2.6-0.1-5.2-0.4-7.7-0.8c-4.8-0.8-9.5-2.2-14-4.1
					c-7.8-3.4-15-8.1-21.6-14.2L83.1,204c3.7,4,8.1,7.4,13.4,10.1c2,1,4,1.8,6.1,2.4c2.5,0.8,5.1,1.3,7.7,1.5c1,0.1,2,0.1,3,0.1
					c1.9,0,3.7-0.2,5.4-0.6c3-0.7,5.5-1.9,7.7-3.7c0.1-0.1,0.2-0.2,0.4-0.3c3.5-3,5.2-6.9,5.2-11.5c0-4.1-1.3-7.5-4-10
					c-0.5-0.5-1-0.9-1.5-1.3c-2.2-1.8-4.8-3.5-7.7-4.9c-0.3-0.1-0.5-0.3-0.8-0.4c-2.4-1.2-4.9-2.3-7.5-3.3c-1.8-0.7-3.8-1.5-5.7-2.2
					c-0.7-0.2-1.3-0.5-2-0.7c-4.1-1.6-8-3.4-11.6-5.7c-5-2.9-9.3-6.7-12.8-11.3c-3.5-4.6-5.3-10.5-5.3-17.7c0-5.7,1.2-10.8,3.7-15.3
					c2.4-4.4,5.6-8.2,9.5-11.3c3.9-3.1,8.4-5.5,13.4-7c1-0.3,2.1-0.6,3.1-0.9c2.5-0.6,5.1-1.1,7.7-1.3c1.6-0.2,3.2-0.2,4.8-0.2
					c1.2,0,2.4,0,3.5,0.1c2.6,0.1,5.2,0.4,7.7,0.8c2.6,0.4,5.2,1,7.7,1.7c6,1.8,12.1,4.9,18.2,9.4l-12.8,18.3
					c-2.6-2.4-5.8-4.4-9.8-6c-1.1-0.4-2.2-0.8-3.3-1.1c-2.5-0.7-5.1-1.1-7.7-1.2c-0.4,0-0.9,0-1.3,0c-2.3,0-4.6,0.3-7,0.8
					c0,0,0,0-0.1,0c-2.4,0.6-4.5,1.4-6.4,2.5c-0.4,0.3-0.9,0.5-1.3,0.8c-1.3,1-2.4,2.1-3.3,3.5c-1.2,1.8-1.7,3.9-1.7,6.3
					c0,3.4,1.5,6.2,4.4,8.4c0.2,0.2,0.4,0.3,0.7,0.5c2.2,1.6,4.8,3,7.7,4.4c0.8,0.4,1.7,0.8,2.6,1.1c1.9,0.8,3.8,1.6,5.7,2.4
					c2.5,1,5,2.1,7.7,3.1c0.2,0.1,0.5,0.2,0.7,0.3c5,2,9.8,4.6,14.2,7.7c4.4,3.1,8.1,7,11,11.7C155.1,188.5,156.6,194.5,156.6,201.7
					z"/>
			</g>
		</g>
	</g>
	<g>
		<path d="M188.5,57.4v255.2H35.1V57.4H188.5 M202.4,43.4H21.1v283.2h181.3V43.4L202.4,43.4z"/>
	</g>
	<rect x="47.1" y="277.2" width="129.4" height="15.6"/>
</g>
</svg>
