<?xml version="1.0" encoding="utf-8"?>
<!-- Generator: Adobe Illustrator 19.0.0, SVG Export Plug-In . SVG Version: 6.00 Build 0)  -->
<svg version="1.1" id="OBJECTS" xmlns="http://www.w3.org/2000/svg" xmlns:xlink="http://www.w3.org/1999/xlink" x="0px" y="0px"
	 viewBox="0 0 602.5 83.8" style="enable-background:new 0 0 602.5 83.8;" xml:space="preserve">
<style type="text/css">
	.st0{display:none;}
	.st1{display:inline;}
	.st2{fill:#FFFFFF;}
</style>
<g class="st0">
	<g class="st1">
		<g>
			<polygon points="1378.4,-356.5 1400.3,-356.5 1400.3,-342.8 1378.4,-339.3 			"/>
			<polygon points="1417.7,-333.4 1417.7,-318.2 1415.2,-319.6 1406.6,-324.2 1406.6,-324.2 1404.4,-325.4 1378.4,-339.3 
				1400.3,-342.8 1406.6,-339.4 1415.2,-334.8 			"/>
			<rect x="1434.2" y="-360.4" width="22.9" height="21.1"/>
			<polygon points="1457.1,-339.3 1429.4,-324.5 1425.4,-322.3 1420.8,-319.9 1417.7,-318.2 1415.2,-319.6 1406.6,-324.2 
				1404.4,-325.4 1406.6,-326.7 1415.2,-331.9 1417.7,-333.4 1420.8,-335.3 1429.4,-340.5 1434.2,-343.4 1434.2,-343.3 			"/>
			<polygon points="1456.7,-398.9 1434.8,-398.9 1434.8,-412.7 1456.7,-416.1 			"/>
			<polygon points="1456.7,-416.1 1434.8,-412.7 1429.4,-415.5 1420.8,-420.2 1417.4,-422 1417.4,-422 1417.4,-437.2 1420.8,-435.4 
				1424.8,-433.2 1429.4,-430.7 1430.7,-430.1 			"/>
			<rect x="1378" y="-416.1" width="22.9" height="21.1"/>
			<polygon points="1430.7,-430.1 1429.4,-429.3 1420.8,-424.1 1417.4,-422 1417.4,-422 1415.2,-420.7 1406.6,-415.4 1401,-412.1 
				1400.9,-412.1 1378,-416.1 1406.6,-431.4 1409.7,-433.1 1415.2,-436 1417.4,-437.2 1420.8,-435.4 1423.7,-433.8 1429.4,-430.7 
				1429.4,-430.7 			"/>
			<polygon points="1400.9,-400 1406.6,-396 1406.6,-374.9 1378,-395.1 1378,-416.1 			"/>
			<polygon points="1415.2,-389.9 1420.8,-386 1420.8,-364.9 1415.2,-368.9 			"/>
			<polygon points="1457.1,-360.4 1457.1,-339.3 1434.2,-355.4 1429.4,-358.8 1429.4,-379.9 			"/>
			<polygon points="1429.4,-415.5 1429.4,-340.5 1420.8,-335.3 1420.8,-420.2 			"/>
			<polygon points="1429.4,-478 1429.4,-430.7 1420.8,-435.4 1420.8,-478 			"/>
			<polygon points="1406.6,-478 1415.2,-478 1415.2,-436 1409.7,-433.1 1406.6,-431.4 			"/>
			<polygon points="1406.6,-324.2 1415.2,-319.6 1415.2,-279.3 1406.6,-279.3 			"/>
			<polygon points="1429.4,-324.5 1429.4,-279.3 1420.8,-279.3 1420.8,-319.9 1425.4,-322.3 			"/>
			<polygon points="1415.2,-420.7 1415.2,-334.8 1406.6,-339.4 1406.6,-415.4 			"/>
			<polygon points="1429.4,-415.5 1420.8,-408.5 1420.8,-420.2 			"/>
			<polygon points="1406.6,-415.4 1415.2,-409 1415.2,-420.7 			"/>
			<polygon points="1429.4,-340.5 1420.8,-347.6 1420.8,-335.3 			"/>
			<polygon points="1406.6,-339.4 1415.2,-347.1 1415.2,-334.8 			"/>
			<polygon points="1378,-416.1 1400.9,-404.7 1400.9,-400 			"/>
			<polygon points="1457.1,-339.3 1434.2,-350.7 1434.2,-355.4 			"/>
		</g>
		<g>
			<path d="M1475.8-461v164.7h-116.5V-461H1475.8 M1484.5-469.7h-133.9v182.1h133.9V-469.7L1484.5-469.7z"/>
		</g>
	</g>
	<g class="st1">
		<text transform="matrix(1 0 0 1 -2329.0405 71.4361)" style="font-family:'Brown-Bold'; font-size:153.9063px;">Stabilized Set Dollar</text>
		<g>
			<g>
				<g>
					<path d="M-2438.1,45.1c-1.8-0.2-3.7-0.6-5.4-1.1l-0.5-0.2V-6.6l0.2-0.2c0.6-0.8,1.4-1.5,2.3-2c1-0.6,2.1-1,3.4-1.3l1-0.3v55.6
						L-2438.1,45.1z"/>
					<path class="st2" d="M-2438-9.4v53.7c-1.8-0.2-3.5-0.5-5.2-1.1V-6.3c0.6-0.7,1.2-1.3,2.1-1.8C-2440.2-8.6-2439.2-9.1-2438-9.4
						 M-2436.4-11.4l-2,0.5c-1.3,0.3-2.5,0.8-3.6,1.4c-1,0.6-1.8,1.3-2.5,2.2l-0.3,0.4v0.5v49.5v1.1l1.1,0.4c1.8,0.6,3.7,1,5.6,1.2
						l1.7,0.2v-1.8V-9.4V-11.4L-2436.4-11.4z"/>
				</g>
				<g>
					<path d="M-2433.2-10.8l0.8,0c1.8,0.1,3.6,0.4,5.4,1l0.6,0.2v50.3l-0.1,0.2c-0.4,0.6-0.9,1.1-1.5,1.6c-1.2,1.1-2.6,1.8-4.2,2.2
						l-1,0.3V-10.8z"/>
					<path class="st2" d="M-2432.4-10c1.8,0.1,3.5,0.4,5.2,0.9v49.4c-0.4,0.5-0.8,1-1.3,1.5c-1.1,1-2.4,1.6-3.9,2V-10 M-2434-11.6
						v1.7v53.9V46l2-0.5c1.7-0.5,3.2-1.3,4.5-2.4c0.6-0.6,1.2-1.1,1.6-1.8l0.3-0.4v-0.5V-9v-1.2l-1.1-0.4c-1.8-0.6-3.7-0.9-5.6-1
						L-2434-11.6L-2434-11.6z"/>
				</g>
			</g>
			<path d="M-2438-46.1v16.6c-1.8,0.2-3.5,0.4-5.2,0.8v-17.4H-2438z"/>
			<path d="M-2443.2-26.2c1.7-0.4,3.4-0.7,5.2-0.9v15.2c0,0,0,0,0,0c-1.6,0.4-3,0.9-4.3,1.7c-0.3,0.2-0.6,0.4-0.8,0.6V-26.2z"/>
			<path d="M-2443.2,45.7c1.7,0.5,3.4,0.8,5.2,1v14.8c-1.8-0.1-3.5-0.3-5.2-0.6V45.7z"/>
			<path d="M-2443.2,63.4c1.7,0.3,3.5,0.5,5.2,0.5v16.5h-5.2V63.4z"/>
			<path d="M-2427.2-46.1V-29c-1.7-0.3-3.4-0.4-5.2-0.5v-16.6H-2427.2z"/>
			<path d="M-2432.4-27.1c1.8,0.1,3.5,0.3,5.2,0.6v15c-1.7-0.5-3.4-0.8-5.2-0.8V-27.1z"/>
			<path d="M-2432.4,46.4c2-0.4,3.7-1.3,5.2-2.5v16.5c-1.7,0.5-3.4,0.8-5.2,1V46.4z"/>
			<path d="M-2432.4,63.8c1.8-0.2,3.5-0.5,5.2-0.9v17.6h-5.2V63.8z"/>
			<g>
				<g>
					<path d="M-2406.8,35.7c0,3.9-0.8,7.4-2.4,10.5c-1.6,3.2-3.7,5.9-6.4,8.1c-2.7,2.3-5.8,4-9.3,5.3c-0.8,0.3-1.5,0.5-2.3,0.7
						c-1.7,0.5-3.4,0.8-5.2,1c-1.2,0.1-2.4,0.2-3.6,0.2c-0.7,0-1.3,0-2,0c-1.8-0.1-3.5-0.3-5.2-0.6c-3.2-0.5-6.4-1.5-9.4-2.8
						c-5.3-2.3-10.1-5.4-14.5-9.5l10.8-11.3c2.5,2.7,5.5,5,9.1,6.8c1.3,0.7,2.7,1.2,4.1,1.7c1.7,0.5,3.4,0.8,5.2,1
						c0.7,0.1,1.3,0.1,2,0.1c1.3,0,2.5-0.1,3.6-0.4c2-0.4,3.7-1.3,5.2-2.5c0.1-0.1,0.2-0.1,0.2-0.2c2.3-2.1,3.5-4.6,3.5-7.8
						c0-2.8-0.9-5-2.7-6.7c-0.3-0.3-0.7-0.6-1-0.9c-1.5-1.2-3.2-2.3-5.2-3.3c-0.2-0.1-0.4-0.2-0.5-0.3c-1.6-0.8-3.3-1.5-5.1-2.2
						c-1.2-0.5-2.5-1-3.9-1.5c-0.5-0.2-0.9-0.3-1.3-0.5c-2.8-1.1-5.4-2.3-7.8-3.8c-3.4-2-6.2-4.5-8.6-7.6c-2.4-3.1-3.6-7.1-3.6-12
						c0-3.9,0.8-7.3,2.5-10.3c1.6-3,3.8-5.5,6.4-7.6c2.6-2.1,5.7-3.7,9.1-4.8c0.7-0.2,1.4-0.4,2.1-0.6c1.7-0.4,3.4-0.7,5.2-0.9
						c1.1-0.1,2.1-0.2,3.2-0.2c0.8,0,1.6,0,2.4,0.1c1.8,0.1,3.5,0.3,5.2,0.6c1.8,0.3,3.5,0.7,5.2,1.2c4.1,1.2,8.2,3.3,12.3,6.3
						l-8.6,12.3c-1.7-1.6-3.9-3-6.6-4.1c-0.7-0.3-1.5-0.5-2.2-0.8c-1.7-0.5-3.4-0.8-5.2-0.8c-0.3,0-0.6,0-0.9,0
						c-1.5,0-3.1,0.2-4.7,0.5c0,0,0,0,0,0c-1.6,0.4-3,0.9-4.3,1.7c-0.3,0.2-0.6,0.4-0.8,0.6c-0.9,0.6-1.6,1.4-2.2,2.3
						c-0.8,1.2-1.2,2.6-1.2,4.3c0,2.3,1,4.2,3,5.7c0.1,0.1,0.3,0.2,0.4,0.3c1.5,1.1,3.2,2,5.2,3c0.6,0.3,1.1,0.5,1.7,0.8
						c1.2,0.5,2.5,1,3.9,1.6c1.7,0.7,3.4,1.4,5.2,2.1c0.2,0.1,0.3,0.1,0.5,0.2c3.4,1.4,6.6,3.1,9.5,5.2c3,2.1,5.4,4.7,7.4,7.9
						C-2407.8,26.8-2406.8,30.8-2406.8,35.7z"/>
				</g>
			</g>
		</g>
		<g>
			<path d="M-2389.4-62.1V96.5h-95.3V-62.1H-2389.4 M-2380.7-70.8h-112.7v176h112.7V-70.8L-2380.7-70.8z"/>
		</g>
		<g>
			<text transform="matrix(1 0 0 1 -2329.0405 -350.3342)" style="font-family:'Brown-Bold'; font-size:153.9063px;">Stabilized Set Dollar</text>
			<g>
				<g>
					<g>
						<g>
							<path d="M-2438.4-369.8c-2.3-0.2-4.6-0.7-6.7-1.4l-0.7-0.2v-62.8l0.2-0.3c0.8-1,1.7-1.9,2.9-2.5c1.3-0.7,2.7-1.3,4.2-1.7
								l1.2-0.3v69.4L-2438.4-369.8z"/>
							<path class="st2" d="M-2438.3-437.7v67c-2.2-0.2-4.4-0.7-6.5-1.4v-61.8c0.7-0.9,1.5-1.7,2.6-2.3
								C-2441-436.8-2439.7-437.4-2438.3-437.7 M-2436.3-440.3l-2.5,0.6c-1.6,0.4-3.1,1-4.5,1.8c-1.3,0.7-2.3,1.6-3.1,2.8l-0.4,0.5
								v0.7v61.8v1.4l1.4,0.5c2.2,0.8,4.6,1.3,7,1.5l2.2,0.2v-2.2v-67V-440.3L-2436.3-440.3z"/>
						</g>
						<g>
							<path d="M-2432.3-439.5l1,0c2.3,0.1,4.5,0.5,6.8,1.2l0.7,0.2v62.8l-0.2,0.3c-0.5,0.7-1.1,1.4-1.8,2c-1.5,1.3-3.2,2.2-5.2,2.8
								l-1.3,0.3V-439.5z"/>
							<path class="st2" d="M-2431.3-438.5c2.2,0.1,4.4,0.5,6.5,1.2v61.7c-0.5,0.7-1,1.3-1.7,1.8c-1.4,1.2-3,2.1-4.8,2.6V-438.5
								 M-2433.3-440.6v2.1v67.3v2.6l2.5-0.7c2.1-0.6,4-1.6,5.6-3c0.8-0.7,1.5-1.4,2-2.2l0.4-0.5v-0.6v-61.7v-1.5l-1.4-0.4
								c-2.3-0.7-4.7-1.2-7-1.3L-2433.3-440.6L-2433.3-440.6z"/>
						</g>
					</g>
					<path d="M-2438.3-503.6v40.8c-2.2,0.2-4.4,0.5-6.5,1v-41.8H-2438.3z"/>
					<path d="M-2444.8-458.7c2.1-0.5,4.3-0.9,6.5-1.1v19c0,0,0,0-0.1,0c-2,0.5-3.8,1.2-5.4,2.1c-0.4,0.2-0.7,0.5-1.1,0.7V-458.7z"/>
					<path d="M-2444.8-369c2.1,0.7,4.3,1.1,6.5,1.2v18.5c-2.2-0.1-4.4-0.3-6.5-0.7V-369z"/>
					<path d="M-2444.8-346.9c2.1,0.3,4.3,0.6,6.5,0.7v40.7h-6.5V-346.9z"/>
					<path d="M-2424.8-503.6v41.3c-2.1-0.3-4.3-0.6-6.5-0.7v-40.7H-2424.8z"/>
					<path d="M-2431.3-459.9c2.2,0.1,4.4,0.3,6.5,0.7v18.8c-2.1-0.6-4.3-1-6.5-1V-459.9z"/>
					<path d="M-2431.3-368.1c2.5-0.5,4.7-1.6,6.5-3.1v20.6c-2.1,0.6-4.3,1-6.5,1.3V-368.1z"/>
					<path d="M-2431.3-346.4c2.2-0.2,4.4-0.6,6.5-1.2v42h-6.5V-346.4z"/>
					<g>
						<g>
							<path d="M-2399.3-381.5c0,4.8-1,9.2-3,13.2s-4.7,7.3-8,10.1c-3.3,2.8-7.2,5-11.6,6.6c-0.9,0.3-1.9,0.6-2.8,0.9
								c-2.1,0.6-4.3,1-6.5,1.3c-1.5,0.2-3,0.3-4.5,0.3c-0.8,0-1.7,0-2.5-0.1c-2.2-0.1-4.4-0.3-6.5-0.7c-4.1-0.7-8-1.8-11.8-3.5
								c-6.6-2.8-12.6-6.8-18.2-11.9l13.5-14.2c3.1,3.4,6.8,6.2,11.3,8.5c1.7,0.8,3.4,1.5,5.1,2.1c2.1,0.7,4.3,1.1,6.5,1.2
								c0.8,0.1,1.7,0.1,2.5,0.1c1.6,0,3.1-0.2,4.5-0.5c2.5-0.5,4.7-1.6,6.5-3.1c0.1-0.1,0.2-0.2,0.3-0.3c2.9-2.6,4.4-5.8,4.4-9.7
								c0-3.5-1.1-6.3-3.4-8.4c-0.4-0.4-0.8-0.8-1.3-1.1c-1.8-1.5-4-2.9-6.5-4.2c-0.2-0.1-0.4-0.2-0.7-0.3c-2-1-4.1-1.9-6.3-2.8
								c-1.6-0.6-3.2-1.2-4.8-1.8c-0.6-0.2-1.1-0.4-1.7-0.6c-3.4-1.3-6.7-2.9-9.8-4.8c-4.2-2.5-7.8-5.6-10.8-9.5
								c-3-3.9-4.5-8.9-4.5-14.9c0-4.8,1-9.1,3.1-12.8c2.1-3.7,4.7-6.9,8-9.5c3.3-2.6,7.1-4.6,11.3-5.9c0.9-0.3,1.8-0.5,2.6-0.7
								c2.1-0.5,4.3-0.9,6.5-1.1c1.3-0.1,2.7-0.2,4-0.2c1,0,2,0,3,0.1c2.2,0.1,4.4,0.3,6.5,0.7c2.2,0.4,4.3,0.8,6.4,1.5
								c5.1,1.5,10.2,4.1,15.3,7.9l-10.8,15.4c-2.2-2.1-4.9-3.7-8.2-5.1c-0.9-0.4-1.8-0.7-2.8-0.9c-2.1-0.6-4.3-1-6.5-1
								c-0.4,0-0.8,0-1.1,0c-1.9,0-3.9,0.2-5.9,0.7c0,0,0,0-0.1,0c-2,0.5-3.8,1.2-5.4,2.1c-0.4,0.2-0.7,0.5-1.1,0.7
								c-1.1,0.8-2,1.8-2.8,2.9c-1,1.5-1.5,3.3-1.5,5.3c0,2.9,1.2,5.2,3.7,7.1c0.2,0.1,0.4,0.3,0.6,0.4c1.8,1.3,4,2.5,6.5,3.7
								c0.7,0.3,1.4,0.7,2.2,1c1.6,0.7,3.2,1.3,4.8,2c2.1,0.9,4.3,1.7,6.5,2.6c0.2,0.1,0.4,0.2,0.6,0.2c4.3,1.7,8.2,3.8,11.9,6.5
								c3.7,2.6,6.8,5.9,9.2,9.8C-2400.5-392.6-2399.3-387.6-2399.3-381.5z"/>
						</g>
					</g>
				</g>
				<g>
					<path d="M-2389.4-483.9v158.6h-95.3v-158.6H-2389.4 M-2380.7-492.6h-112.7v176h112.7V-492.6L-2380.7-492.6z"/>
				</g>
			</g>
		</g>
	</g>
</g>
<g>
	<g>
		<path class="st2" d="M66.3,47.2c1.1,1.2,2.4,2.2,4,3c1.6,0.8,3.3,1.2,5,1.2c1.6,0,3-0.5,4-1.4c1-0.9,1.6-2.1,1.6-3.5
			c0-1.2-0.4-2.2-1.2-3c-0.8-0.8-1.8-1.4-3-2c-1.2-0.6-2.5-1.1-4-1.6c-1.4-0.5-2.8-1.2-4.1-1.9c-1.5-0.9-2.8-2-3.8-3.4
			c-1.1-1.4-1.6-3.2-1.6-5.3c0-1.7,0.4-3.3,1.1-4.6c0.7-1.3,1.7-2.5,2.9-3.4c1.2-0.9,2.5-1.6,4-2.1c1.5-0.5,3.1-0.7,4.7-0.7
			c2,0,3.9,0.3,5.7,0.8c1.8,0.5,3.6,1.5,5.5,2.8l-3.8,5.5c-0.8-0.7-1.8-1.3-2.9-1.8c-1.2-0.5-2.4-0.7-3.7-0.7
			c-0.7,0-1.4,0.1-2.1,0.2c-0.7,0.2-1.4,0.4-1.9,0.7c-0.6,0.3-1,0.8-1.4,1.3c-0.3,0.5-0.5,1.2-0.5,1.9c0,1,0.4,1.9,1.3,2.5
			c0.9,0.7,2,1.3,3.3,1.8c1.3,0.5,2.7,1.1,4.3,1.7c1.5,0.6,2.9,1.4,4.3,2.3c1.3,0.9,2.4,2.1,3.3,3.5c0.9,1.4,1.3,3.2,1.3,5.4
			c0,1.7-0.4,3.3-1.1,4.7c-0.7,1.4-1.7,2.6-2.9,3.6c-1.2,1-2.6,1.8-4.1,2.4c-1.6,0.6-3.2,0.9-4.9,0.9c-2.6,0-5.1-0.5-7.4-1.5
			c-2.3-1-4.5-2.4-6.5-4.3L66.3,47.2z"/>
		<path class="st2" d="M113.4,57.5c-0.5,0.2-1.2,0.3-2.1,0.4c-0.9,0.1-1.7,0.1-2.4,0.1c-2.2,0-4-0.3-5.6-1c-1.5-0.7-2.8-1.6-3.7-2.8
			c-0.7-0.9-1.2-2-1.5-3.2c-0.3-1.2-0.5-2.8-0.5-4.7v-9.3h-7.4v-6h7.4v-7.4h7.1v7.4h8.8v6h-8.8V47c0,0.8,0.1,1.5,0.2,2
			c0.1,0.5,0.4,1,0.7,1.3c0.4,0.4,0.8,0.7,1.4,1c0.6,0.2,1.3,0.4,2.2,0.4c0.5,0,1.1,0,1.6-0.1c0.6-0.1,1-0.1,1.3-0.2L113.4,57.5z"/>
		<path class="st2" d="M145.3,57.5h-6.9v-2.1c-1.1,1-2.3,1.6-3.5,2.1c-1.2,0.4-2.5,0.6-3.9,0.6c-2,0-3.9-0.4-5.6-1.2
			c-1.8-0.8-3.3-1.9-4.4-3.3c-1.1-1.2-1.9-2.6-2.5-4.2c-0.6-1.6-0.9-3.3-0.9-5.1c0-2,0.3-3.8,1-5.5c0.7-1.7,1.6-3.2,2.8-4.4
			c1.2-1.2,2.6-2.2,4.1-2.9c1.6-0.7,3.3-1.1,5.1-1.1c1.5,0,3,0.2,4.3,0.7c1.3,0.5,2.5,1.1,3.5,2v-2.1h6.9V57.5z M138.1,40.2
			c-0.7-1-1.7-1.8-2.8-2.4c-1.1-0.6-2.4-0.9-3.8-0.9c-1.1,0-2,0.2-2.9,0.6c-0.8,0.4-1.6,0.9-2.1,1.6c-0.6,0.7-1,1.5-1.4,2.3
			c-0.3,0.9-0.5,1.8-0.5,2.7c0,1.1,0.2,2,0.5,2.9c0.3,0.9,0.8,1.6,1.5,2.3c0.6,0.6,1.4,1.1,2.3,1.5c0.9,0.4,1.8,0.5,2.8,0.5
			c1.4,0,2.6-0.3,3.7-0.9c1.1-0.6,2-1.4,2.7-2.4V40.2z"/>
		<path class="st2" d="M153.5,57.5v-39h7.1v14.3c2.1-1.6,4.6-2.5,7.5-2.5c1.8,0,3.5,0.4,5.1,1.1c1.6,0.7,3,1.7,4.2,2.9
			c1.2,1.2,2.1,2.7,2.8,4.4c0.7,1.7,1,3.5,1,5.5c0,1.8-0.3,3.5-0.9,5.1c-0.6,1.6-1.4,3-2.5,4.2c-1.2,1.4-2.6,2.5-4.4,3.3
			c-1.8,0.8-3.7,1.2-5.6,1.2c-1.4,0-2.7-0.2-3.9-0.6c-1.2-0.4-2.4-1.1-3.5-2.1v2.1H153.5z M160.7,48.1c0.7,1,1.6,1.8,2.7,2.4
			c1.1,0.6,2.4,0.9,3.7,0.9c1,0,1.9-0.2,2.8-0.5c0.9-0.4,1.6-0.9,2.3-1.5c0.6-0.6,1.1-1.4,1.5-2.3c0.3-0.9,0.5-1.8,0.5-2.9
			c0-1-0.2-1.9-0.5-2.7c-0.3-0.9-0.8-1.7-1.4-2.3c-0.6-0.7-1.3-1.2-2.2-1.6c-0.9-0.4-1.8-0.6-2.8-0.6c-1.4,0-2.7,0.3-3.8,0.9
			c-1.1,0.6-2.1,1.4-2.8,2.4V48.1z"/>
		<path class="st2" d="M186.2,21.4c0-1.3,0.5-2.4,1.4-3.2c0.9-0.9,2-1.3,3.3-1.3c1.3,0,2.4,0.4,3.3,1.3c0.9,0.9,1.4,2,1.4,3.2
			c0,1.3-0.5,2.4-1.4,3.2c-0.9,0.9-2,1.3-3.3,1.3c-1.3,0-2.4-0.4-3.3-1.3C186.7,23.7,186.2,22.6,186.2,21.4z M194.5,57.5h-7.1V30.8
			h7.1V57.5z"/>
		<path class="st2" d="M209.8,57.5h-7.1v-39h7.1V57.5z"/>
		<path class="st2" d="M217,21.4c0-1.3,0.5-2.4,1.4-3.2c0.9-0.9,2-1.3,3.3-1.3c1.3,0,2.4,0.4,3.3,1.3c0.9,0.9,1.4,2,1.4,3.2
			c0,1.3-0.5,2.4-1.4,3.2c-0.9,0.9-2,1.3-3.3,1.3c-1.3,0-2.4-0.4-3.3-1.3C217.4,23.7,217,22.6,217,21.4z M225.2,57.5h-7.1V30.8h7.1
			V57.5z"/>
		<path class="st2" d="M254.6,35.2l-12.9,16.2h14v6h-23.6v-4.4l12.8-16.2h-11.7v-6h21.4V35.2z"/>
		<path class="st2" d="M284.5,53.2c-1.3,1.5-2.9,2.7-4.9,3.5c-2,0.8-4,1.2-6.1,1.2c-2,0-3.8-0.3-5.5-1c-1.7-0.7-3.2-1.6-4.4-2.8
			c-1.2-1.2-2.2-2.7-2.9-4.4c-0.7-1.7-1.1-3.6-1.1-5.7c0-1.9,0.3-3.6,0.9-5.3c0.6-1.7,1.5-3.1,2.6-4.4c1.1-1.3,2.5-2.3,4.1-3.1
			c1.6-0.8,3.4-1.1,5.4-1.1c1.8,0,3.5,0.4,5.1,1.1c1.5,0.7,2.9,1.7,4,2.9c1.1,1.2,2,2.7,2.6,4.3c0.6,1.6,0.9,3.4,0.9,5.3
			c0,0.8-0.1,1.4-0.2,2h-18.5c0.1,1,0.4,1.8,0.8,2.6c0.4,0.8,0.9,1.4,1.6,2c0.6,0.5,1.4,1,2.2,1.3c0.8,0.3,1.7,0.5,2.7,0.5
			c1.5,0,2.9-0.3,4-1c1.2-0.7,2-1.4,2.7-2.1L284.5,53.2z M277.8,40.7c-0.1-0.6-0.2-1.2-0.5-1.7c-0.3-0.6-0.6-1.1-1.1-1.5
			c-0.5-0.4-1-0.8-1.6-1c-0.6-0.3-1.3-0.4-2-0.4c-1.5,0-2.8,0.5-3.8,1.4c-1.1,1-1.7,2-1.9,3.2H277.8z"/>
		<path class="st2" d="M310.4,57.5v-2.1c-1.1,1-2.3,1.6-3.5,2.1c-1.2,0.4-2.5,0.6-3.9,0.6c-2,0-3.9-0.4-5.6-1.2
			c-1.8-0.8-3.3-1.9-4.4-3.3c-1.1-1.2-1.9-2.6-2.5-4.2c-0.6-1.6-0.9-3.3-0.9-5.1c0-2,0.3-3.8,1-5.5c0.7-1.7,1.6-3.2,2.8-4.4
			c1.2-1.2,2.6-2.2,4.1-2.9c1.6-0.7,3.3-1.1,5.1-1.1c2.9,0,5.4,0.8,7.5,2.5V18.4h7.1v39H310.4z M310.1,40.2c-0.7-1-1.7-1.8-2.8-2.4
			c-1.1-0.6-2.4-0.9-3.8-0.9c-1.1,0-2,0.2-2.9,0.6c-0.8,0.4-1.6,0.9-2.1,1.6c-0.6,0.7-1,1.5-1.4,2.3c-0.3,0.9-0.5,1.8-0.5,2.7
			c0,1.1,0.2,2,0.5,2.9c0.3,0.9,0.8,1.6,1.5,2.3c0.6,0.6,1.4,1.1,2.3,1.5c0.9,0.4,1.8,0.5,2.8,0.5c1.4,0,2.6-0.3,3.7-0.9
			c1.1-0.6,2-1.4,2.7-2.4V40.2z"/>
		<path class="st2" d="M340.5,47.2c1.1,1.2,2.4,2.2,4,3c1.6,0.8,3.3,1.2,5,1.2c1.6,0,3-0.5,4-1.4c1-0.9,1.6-2.1,1.6-3.5
			c0-1.2-0.4-2.2-1.2-3c-0.8-0.8-1.8-1.4-3-2c-1.2-0.6-2.5-1.1-4-1.6c-1.4-0.5-2.8-1.2-4.1-1.9c-1.5-0.9-2.8-2-3.8-3.4
			c-1.1-1.4-1.6-3.2-1.6-5.3c0-1.7,0.4-3.3,1.1-4.6c0.7-1.3,1.7-2.5,2.9-3.4c1.2-0.9,2.5-1.6,4-2.1c1.5-0.5,3.1-0.7,4.7-0.7
			c2,0,3.9,0.3,5.7,0.8c1.8,0.5,3.6,1.5,5.5,2.8l-3.8,5.5c-0.8-0.7-1.8-1.3-2.9-1.8c-1.2-0.5-2.4-0.7-3.7-0.7
			c-0.7,0-1.4,0.1-2.1,0.2c-0.7,0.2-1.4,0.4-1.9,0.7c-0.6,0.3-1,0.8-1.4,1.3c-0.3,0.5-0.5,1.2-0.5,1.9c0,1,0.4,1.9,1.3,2.5
			c0.9,0.7,2,1.3,3.3,1.8c1.3,0.5,2.7,1.1,4.3,1.7c1.5,0.6,2.9,1.4,4.3,2.3c1.3,0.9,2.4,2.1,3.3,3.5c0.9,1.4,1.3,3.2,1.3,5.4
			c0,1.7-0.4,3.3-1.1,4.7c-0.7,1.4-1.7,2.6-2.9,3.6c-1.2,1-2.6,1.8-4.1,2.4c-1.6,0.6-3.2,0.9-4.9,0.9c-2.6,0-5.1-0.5-7.4-1.5
			c-2.3-1-4.5-2.4-6.5-4.3L340.5,47.2z"/>
		<path class="st2" d="M391.9,53.2c-1.3,1.5-2.9,2.7-4.9,3.5c-2,0.8-4,1.2-6.1,1.2c-2,0-3.8-0.3-5.5-1c-1.7-0.7-3.2-1.6-4.4-2.8
			c-1.2-1.2-2.2-2.7-2.9-4.4c-0.7-1.7-1.1-3.6-1.1-5.7c0-1.9,0.3-3.6,0.9-5.3c0.6-1.7,1.5-3.1,2.6-4.4c1.1-1.3,2.5-2.3,4.1-3.1
			c1.6-0.8,3.4-1.1,5.4-1.1c1.8,0,3.5,0.4,5.1,1.1c1.5,0.7,2.9,1.7,4,2.9c1.1,1.2,2,2.7,2.6,4.3c0.6,1.6,0.9,3.4,0.9,5.3
			c0,0.8-0.1,1.4-0.2,2H374c0.1,1,0.4,1.8,0.8,2.6c0.4,0.8,0.9,1.4,1.6,2c0.6,0.5,1.4,1,2.2,1.3c0.8,0.3,1.7,0.5,2.7,0.5
			c1.5,0,2.9-0.3,4-1c1.2-0.7,2-1.4,2.7-2.1L391.9,53.2z M385.3,40.7c-0.1-0.6-0.2-1.2-0.5-1.7c-0.3-0.6-0.6-1.1-1.1-1.5
			c-0.5-0.4-1-0.8-1.6-1c-0.6-0.3-1.3-0.4-2-0.4c-1.5,0-2.8,0.5-3.8,1.4c-1.1,1-1.7,2-1.9,3.2H385.3z"/>
		<path class="st2" d="M418.1,57.5c-0.5,0.2-1.2,0.3-2.1,0.4c-0.9,0.1-1.7,0.1-2.4,0.1c-2.2,0-4-0.3-5.6-1c-1.5-0.7-2.8-1.6-3.7-2.8
			c-0.7-0.9-1.2-2-1.5-3.2c-0.3-1.2-0.5-2.8-0.5-4.7v-9.3h-7.4v-6h7.4v-7.4h7.1v7.4h8.8v6h-8.8V47c0,0.8,0.1,1.5,0.2,2
			c0.1,0.5,0.4,1,0.7,1.3c0.4,0.4,0.8,0.7,1.4,1c0.6,0.2,1.3,0.4,2.2,0.4c0.5,0,1.1,0,1.6-0.1c0.6-0.1,1-0.1,1.3-0.2L418.1,57.5z"/>
		<path class="st2" d="M452.5,19c3.1,0,5.7,0.3,7.7,0.9c2.1,0.6,3.9,1.5,5.5,2.7c2.4,1.8,4.2,4,5.6,6.7c1.4,2.7,2,5.7,2,8.9
			c0,3.2-0.7,6.2-2,8.9c-1.4,2.7-3.2,4.9-5.6,6.7c-1.6,1.2-3.4,2.1-5.5,2.7c-2.1,0.6-4.7,0.9-7.7,0.9h-12.1V19H452.5z M466,38.2
			c0-1.6-0.2-3.1-0.7-4.6c-0.5-1.4-1.2-2.7-2.1-3.8c-1.1-1.4-2.4-2.4-4-3.2c-1.6-0.8-3.5-1.1-5.9-1.1h-5.5v25.3h5.5
			c2.3,0,4.3-0.4,5.9-1.1c1.6-0.8,2.9-1.8,4-3.2c0.9-1.1,1.6-2.4,2.1-3.8C465.7,41.4,466,39.8,466,38.2z"/>
		<path class="st2" d="M478,44.2c0-1.9,0.4-3.7,1.1-5.4c0.7-1.7,1.7-3.2,3-4.4c1.3-1.2,2.8-2.2,4.5-3c1.7-0.7,3.6-1.1,5.6-1.1
			c2,0,3.9,0.4,5.6,1.1c1.7,0.7,3.2,1.7,4.5,3c1.3,1.2,2.3,2.7,3,4.4c0.7,1.7,1.1,3.5,1.1,5.4c0,1.9-0.4,3.7-1.1,5.4
			c-0.7,1.7-1.7,3.1-3,4.4c-1.3,1.3-2.8,2.3-4.5,3c-1.7,0.7-3.6,1.1-5.6,1.1c-2,0-3.9-0.4-5.6-1.1c-1.7-0.7-3.2-1.7-4.5-3
			c-1.3-1.3-2.3-2.7-3-4.4C478.4,47.9,478,46.1,478,44.2z M485.2,44.2c0,1,0.2,1.9,0.5,2.8c0.3,0.9,0.8,1.6,1.4,2.3
			c0.6,0.7,1.3,1.2,2.2,1.6c0.9,0.4,1.8,0.6,2.9,0.6c1,0,2-0.2,2.9-0.6c0.9-0.4,1.6-0.9,2.2-1.6c0.6-0.7,1.1-1.4,1.4-2.3
			c0.3-0.9,0.5-1.8,0.5-2.8c0-1-0.2-1.9-0.5-2.8c-0.3-0.9-0.8-1.7-1.4-2.3c-0.6-0.7-1.3-1.2-2.2-1.6c-0.9-0.4-1.8-0.6-2.9-0.6
			c-1.1,0-2,0.2-2.9,0.6c-0.9,0.4-1.6,0.9-2.2,1.6c-0.6,0.7-1.1,1.4-1.4,2.3C485.4,42.2,485.2,43.2,485.2,44.2z"/>
		<path class="st2" d="M519.6,57.5h-7.1v-39h7.1V57.5z"/>
		<path class="st2" d="M535,57.5h-7.1v-39h7.1V57.5z"/>
		<path class="st2" d="M568.8,57.5h-6.9v-2.1c-1.1,1-2.3,1.6-3.5,2.1c-1.2,0.4-2.5,0.6-3.9,0.6c-2,0-3.9-0.4-5.6-1.2
			c-1.8-0.8-3.3-1.9-4.4-3.3c-1.1-1.2-1.9-2.6-2.5-4.2c-0.6-1.6-0.9-3.3-0.9-5.1c0-2,0.3-3.8,1-5.5c0.7-1.7,1.6-3.2,2.8-4.4
			c1.2-1.2,2.6-2.2,4.1-2.9c1.6-0.7,3.3-1.1,5.1-1.1c1.5,0,3,0.2,4.3,0.7c1.3,0.5,2.5,1.1,3.5,2v-2.1h6.9V57.5z M561.6,40.2
			c-0.7-1-1.7-1.8-2.8-2.4c-1.1-0.6-2.4-0.9-3.8-0.9c-1.1,0-2,0.2-2.9,0.6c-0.8,0.4-1.6,0.9-2.1,1.6c-0.6,0.7-1,1.5-1.4,2.3
			c-0.3,0.9-0.5,1.8-0.5,2.7c0,1.1,0.2,2,0.5,2.9c0.3,0.9,0.8,1.6,1.5,2.3c0.6,0.6,1.4,1.1,2.3,1.5c0.9,0.4,1.8,0.5,2.8,0.5
			c1.4,0,2.6-0.3,3.7-0.9c1.1-0.6,2-1.4,2.7-2.4V40.2z"/>
		<path class="st2" d="M593.2,37.1c-0.3-0.1-0.6-0.1-1.1-0.2c-0.5-0.1-1-0.1-1.5-0.1c-0.8,0-1.5,0.1-2.2,0.4c-0.7,0.3-1.3,0.6-1.9,1
			c-0.6,0.4-1.1,0.8-1.5,1.2c-0.4,0.4-0.7,0.9-0.9,1.3v16.8H577V30.8h6.9v2.7c0.8-1,1.9-1.8,3.2-2.4c1.4-0.6,2.9-0.9,4.5-0.9
			c0.5,0,0.9,0,1.3,0.1c0.3,0,0.7,0.1,1.1,0.2L593.2,37.1z"/>
	</g>
	<g>
		<g>
			<path class="st2" d="M21,27.4c0.3-0.2,0.7-0.3,1-0.4v17.7c-0.6-0.1-1.2-0.2-1.7-0.4V28C20.5,27.7,20.7,27.5,21,27.4z"/>
			<path class="st2" d="M23.9,26.8c0.6,0,1.2,0.1,1.7,0.3v16.3c-0.1,0.2-0.3,0.3-0.4,0.5c-0.4,0.3-0.8,0.5-1.3,0.7V26.8z"/>
		</g>
		<path class="st2" d="M22,14.9v5.5c-0.6,0.1-1.1,0.1-1.7,0.3v-5.7H22z"/>
		<path class="st2" d="M20.3,21.4c0.6-0.1,1.1-0.2,1.7-0.3v5c0,0,0,0,0,0c-0.5,0.1-1,0.3-1.4,0.5c-0.1,0.1-0.2,0.1-0.3,0.2V21.4z"/>
		<path class="st2" d="M20.3,45.1c0.6,0.2,1.1,0.3,1.7,0.3v4.9c-0.6,0-1.2-0.1-1.7-0.2V45.1z"/>
		<path class="st2" d="M20.3,50.9c0.6,0.1,1.1,0.2,1.7,0.2v5.4h-1.7V50.9z"/>
		<path class="st2" d="M25.6,14.9v5.6c-0.6-0.1-1.1-0.1-1.7-0.2v-5.4H25.6z"/>
		<path class="st2" d="M23.9,21.1c0.6,0,1.2,0.1,1.7,0.2v4.9C25,26.1,24.4,26,23.9,26V21.1z"/>
		<path class="st2" d="M23.9,45.3c0.7-0.1,1.2-0.4,1.7-0.8v5.4c-0.6,0.2-1.1,0.3-1.7,0.3V45.3z"/>
		<path class="st2" d="M23.9,51c0.6-0.1,1.2-0.2,1.7-0.3v5.8h-1.7V51z"/>
		<g>
			<g>
				<path class="st2" d="M32.3,41.8c0,1.3-0.3,2.4-0.8,3.5c-0.5,1-1.2,1.9-2.1,2.7c-0.9,0.7-1.9,1.3-3.1,1.7
					c-0.2,0.1-0.5,0.2-0.7,0.2c-0.6,0.2-1.1,0.3-1.7,0.3c-0.4,0-0.8,0.1-1.2,0.1c-0.2,0-0.4,0-0.7,0c-0.6,0-1.2-0.1-1.7-0.2
					c-1.1-0.2-2.1-0.5-3.1-0.9c-1.7-0.7-3.3-1.8-4.8-3.1l3.6-3.7c0.8,0.9,1.8,1.6,3,2.2c0.4,0.2,0.9,0.4,1.3,0.5
					c0.6,0.2,1.1,0.3,1.7,0.3c0.2,0,0.4,0,0.7,0c0.4,0,0.8,0,1.2-0.1c0.7-0.1,1.2-0.4,1.7-0.8c0,0,0.1,0,0.1-0.1
					c0.8-0.7,1.2-1.5,1.2-2.6c0-0.9-0.3-1.7-0.9-2.2c-0.1-0.1-0.2-0.2-0.3-0.3c-0.5-0.4-1.1-0.8-1.7-1.1c-0.1,0-0.1-0.1-0.2-0.1
					c-0.5-0.3-1.1-0.5-1.7-0.7c-0.4-0.2-0.8-0.3-1.3-0.5c-0.2-0.1-0.3-0.1-0.4-0.2c-0.9-0.3-1.8-0.8-2.6-1.3
					c-1.1-0.6-2.1-1.5-2.8-2.5c-0.8-1-1.2-2.3-1.2-3.9c0-1.3,0.3-2.4,0.8-3.4c0.5-1,1.2-1.8,2.1-2.5c0.9-0.7,1.9-1.2,3-1.6
					c0.2-0.1,0.5-0.1,0.7-0.2c0.6-0.1,1.1-0.2,1.7-0.3c0.4,0,0.7-0.1,1.1-0.1c0.3,0,0.5,0,0.8,0c0.6,0,1.2,0.1,1.7,0.2
					c0.6,0.1,1.1,0.2,1.7,0.4c1.3,0.4,2.7,1.1,4,2.1l-2.8,4.1c-0.6-0.5-1.3-1-2.2-1.3c-0.2-0.1-0.5-0.2-0.7-0.2
					C25,26.1,24.4,26,23.9,26c-0.1,0-0.2,0-0.3,0c-0.5,0-1,0.1-1.5,0.2c0,0,0,0,0,0c-0.5,0.1-1,0.3-1.4,0.5
					c-0.1,0.1-0.2,0.1-0.3,0.2c-0.3,0.2-0.5,0.5-0.7,0.8c-0.3,0.4-0.4,0.9-0.4,1.4c0,0.8,0.3,1.4,1,1.9c0,0,0.1,0.1,0.1,0.1
					c0.5,0.3,1.1,0.7,1.7,1c0.2,0.1,0.4,0.2,0.6,0.3c0.4,0.2,0.8,0.3,1.3,0.5c0.5,0.2,1.1,0.5,1.7,0.7c0.1,0,0.1,0,0.2,0.1
					c1.1,0.4,2.2,1,3.1,1.7c1,0.7,1.8,1.6,2.4,2.6C32,38.9,32.3,40.2,32.3,41.8z"/>
			</g>
		</g>
	</g>
	<path class="st2" d="M39.4,9.8v56.6h-34V9.8H39.4 M42.5,6.7H2.2v62.8h40.2V6.7L42.5,6.7z"/>
	<rect x="8" y="58.5" class="st2" width="28.7" height="3.5"/>
</g>
</svg>
